<svg width="16" height="17" viewBox="0 0 16 17" fill="none" xmlns="http://www.w3.org/2000/svg">
<path fill-rule="evenodd" clip-rule="evenodd" d="M8.00067 0.65625C5.828 0.65625 5.55533 0.66575 4.702 0.704583C3.85033 0.743583 3.269 0.878417 2.76033 1.07625C2.23417 1.28058 1.78783 1.55392 1.34317 1.99875C0.898167 2.44342 0.624833 2.88975 0.419833 3.41575C0.2215 3.92458 0.0865 4.50608 0.0481667 5.35742C0.01 6.21075 0 6.48358 0 8.65625C0 10.8289 0.00966667 11.1007 0.0483333 11.9541C0.0875 12.8057 0.222333 13.3871 0.42 13.8958C0.6245 14.4219 0.897833 14.8683 1.34267 15.3129C1.78717 15.7579 2.2335 16.0319 2.75933 16.2363C3.26833 16.4341 3.84983 16.5689 4.70133 16.6079C5.55467 16.6468 5.82717 16.6562 7.99967 16.6562C10.1725 16.6562 10.4443 16.6468 11.2977 16.6079C12.1493 16.5689 12.7313 16.4341 13.2403 16.2363C13.7663 16.0319 14.212 15.7579 14.6565 15.3129C15.1015 14.8683 15.3748 14.4219 15.5798 13.8959C15.7765 13.3871 15.9115 12.8056 15.9515 11.9543C15.9898 11.1009 15.9998 10.8289 15.9998 8.65625C15.9998 6.48358 15.9898 6.21092 15.9515 5.35758C15.9115 4.50592 15.7765 3.92458 15.5798 3.41592C15.3748 2.88975 15.1015 2.44342 14.6565 1.99875C14.2115 1.55375 13.7665 1.28042 13.2398 1.07625C12.7298 0.878417 12.1482 0.743583 11.2965 0.704583C10.4432 0.66575 10.1715 0.65625 7.99817 0.65625H8.00067ZM7.28318 2.09792C7.49618 2.09758 7.73385 2.09792 8.00085 2.09792C10.1368 2.09792 10.39 2.10558 11.2335 2.14392C12.0135 2.17958 12.4368 2.30992 12.7188 2.41942C13.0922 2.56442 13.3583 2.73775 13.6382 3.01775C13.9182 3.29775 14.0915 3.56442 14.2368 3.93775C14.3463 4.21942 14.4768 4.64275 14.5123 5.42275C14.5507 6.26608 14.559 6.51942 14.559 8.65442C14.559 10.7894 14.5507 11.0427 14.5123 11.8861C14.4767 12.6661 14.3463 13.0894 14.2368 13.3711C14.0918 13.7444 13.9182 14.0102 13.6382 14.2901C13.3582 14.5701 13.0923 14.7434 12.7188 14.8884C12.4372 14.9984 12.0135 15.1284 11.2335 15.1641C10.3902 15.2024 10.1368 15.2107 8.00085 15.2107C5.86468 15.2107 5.61151 15.2024 4.76818 15.1641C3.98818 15.1281 3.56485 14.9977 3.28268 14.8882C2.90935 14.7432 2.64268 14.5699 2.36268 14.2899C2.08268 14.0099 1.90935 13.7439 1.76401 13.3704C1.65451 13.0887 1.52401 12.6654 1.48851 11.8854C1.45018 11.0421 1.44251 10.7887 1.44251 8.65242C1.44251 6.51608 1.45018 6.26408 1.48851 5.42075C1.52418 4.64075 1.65451 4.21742 1.76401 3.93542C1.90901 3.56208 2.08268 3.29542 2.36268 3.01542C2.64268 2.73542 2.90935 2.56208 3.28268 2.41675C3.56468 2.30675 3.98818 2.17675 4.76818 2.14092C5.50618 2.10758 5.79218 2.09758 7.28318 2.09592V2.09792ZM12.2712 3.42625C11.7412 3.42625 11.3112 3.85575 11.3112 4.38592C11.3112 4.91592 11.7412 5.34592 12.2712 5.34592C12.8012 5.34592 13.2312 4.91592 13.2312 4.38592C13.2312 3.85592 12.8012 3.42592 12.2712 3.42592V3.42625ZM8.00077 4.5479C5.73194 4.5479 3.89244 6.3874 3.89244 8.65624C3.89244 10.9251 5.73194 12.7637 8.00077 12.7637C10.2696 12.7637 12.1084 10.9251 12.1084 8.65624C12.1084 6.3874 10.2694 4.5479 8.0006 4.5479H8.00077ZM8.0007 5.98957C9.47337 5.98957 10.6674 7.1834 10.6674 8.65624C10.6674 10.1289 9.47337 11.3229 8.0007 11.3229C6.52787 11.3229 5.33404 10.1289 5.33404 8.65624C5.33404 7.1834 6.52787 5.98957 8.0007 5.98957Z" fill="white"/>
</svg>
