<svg width="20" height="17" viewBox="0 0 20 17" fill="none" xmlns="http://www.w3.org/2000/svg">
<path fill-rule="evenodd" clip-rule="evenodd" d="M9.93445 4.9125L9.97642 5.60455L9.27694 5.51981C6.73083 5.19497 4.50649 4.09335 2.6179 2.24318L1.69458 1.32516L1.45676 2.00309C0.953135 3.51429 1.2749 5.11023 2.32411 6.1836C2.8837 6.77679 2.75779 6.86153 1.79251 6.50844C1.45676 6.39545 1.16298 6.31071 1.135 6.35308C1.03707 6.45195 1.37282 7.73717 1.63862 8.24562C2.00235 8.95178 2.7438 9.64383 3.5552 10.0534L4.24069 10.3782L3.42929 10.3924C2.64587 10.3924 2.6179 10.4065 2.70183 10.7031C2.98163 11.6211 4.0868 12.5956 5.31789 13.0193L6.18524 13.3159L5.4298 13.7679C4.31064 14.4175 2.99561 14.7847 1.68059 14.813C1.05106 14.8271 0.533447 14.8836 0.533447 14.926C0.533447 15.0672 2.24018 15.8581 3.23344 16.1688C6.21322 17.0868 9.75259 16.6914 12.4106 15.1237C14.2992 14.008 16.1878 11.7906 17.0691 9.64383C17.5448 8.49984 18.0204 6.40958 18.0204 5.40682C18.0204 4.75714 18.0624 4.6724 18.8458 3.89562C19.3075 3.44367 19.7411 2.94935 19.8251 2.80812C19.965 2.53977 19.951 2.53977 19.2375 2.77987C18.0484 3.20357 17.8805 3.14708 18.4681 2.51153C18.9018 2.05958 19.4194 1.24042 19.4194 1.00033C19.4194 0.957957 19.2095 1.02857 18.9717 1.15568C18.7199 1.29692 18.1603 1.50877 17.7406 1.63588L16.9852 1.87598L16.2997 1.4099C15.922 1.15568 15.3904 0.873217 15.1106 0.788477C14.3971 0.590749 13.3059 0.618996 12.6624 0.84497C10.9137 1.48052 9.80854 3.11883 9.93445 4.9125Z" fill="white"/>
</svg>
