<svg width="23" height="17" viewBox="0 0 23 17" fill="none" xmlns="http://www.w3.org/2000/svg">
<path fill-rule="evenodd" clip-rule="evenodd" d="M19.8275 1.13393C20.7853 1.39677 21.5397 2.17122 21.7957 3.1547C22.2609 4.93715 22.2609 8.65625 22.2609 8.65625C22.2609 8.65625 22.2609 12.3752 21.7957 14.1578C21.5397 15.1413 20.7853 15.9157 19.8275 16.1787C18.0916 16.6562 11.1304 16.6562 11.1304 16.6562C11.1304 16.6562 4.16923 16.6562 2.43327 16.1787C1.47542 15.9157 0.721075 15.1413 0.465075 14.1578C0 12.3752 0 8.65625 0 8.65625C0 8.65625 0 4.93715 0.465075 3.1547C0.721075 2.17122 1.47542 1.39677 2.43327 1.13393C4.16923 0.65625 11.1304 0.65625 11.1304 0.65625C11.1304 0.65625 18.0916 0.65625 19.8275 1.13393ZM9.0437 5.52539V12.4819L14.6089 9.00378L9.0437 5.52539Z" fill="white"/>
</svg>
