<svg width="677" height="547" viewBox="0 0 677 547" fill="none" xmlns="http://www.w3.org/2000/svg">
<path d="M0 147H671C674.314 147 677 149.686 677 153V541C677 544.314 674.314 547 671 547H0V147Z" fill="#FFE9D0"/>
<path d="M271.759 64.1019C274.617 65.4261 276.115 68.6088 275.313 71.6548C270.816 88.7296 267.575 112.573 273.937 138.99L267.618 140.512L273.937 138.99C284.064 181.042 313.756 209.643 342.385 228.127C370.983 246.592 397.804 254.481 400.749 255.304C404.075 256.233 406.094 259.6 405.346 262.971C404.598 266.343 401.345 268.541 397.938 267.977C390.717 266.781 380.749 265.506 368.782 265.15L368.781 265.15L368.77 265.15L368.724 265.148L368.534 265.143C368.42 265.14 368.269 265.136 368.085 265.132C367.996 265.13 367.9 265.128 367.796 265.125C367.156 265.111 366.24 265.094 365.144 265.08C362.944 265.053 360.054 265.044 357.231 265.112L271.759 64.1019ZM271.759 64.1019C268.901 62.7777 265.505 63.6932 263.7 66.2744M271.759 64.1019L263.7 66.2744M263.7 66.2744C250.37 85.3355 230.638 118.775 221.062 164.704C213.053 203.115 215.173 235.755 218.288 257.114C218.542 258.854 219.49 260.417 220.916 261.446M263.7 66.2744L220.916 261.446M220.916 261.446C242.465 277.004 260.429 280.369 272.905 280.496M220.916 261.446L272.905 280.496M272.905 280.496C287.018 280.639 301.844 276.682 315.861 272.942M272.905 280.496L315.861 272.942M315.861 272.942L315.872 272.939M315.861 272.942L315.872 272.939M315.872 272.939L315.994 272.906M315.872 272.939L315.994 272.906M315.994 272.906C330.343 269.077 344.017 265.428 357.231 265.112L315.994 272.906Z" fill="#EA9127" stroke="white" stroke-width="13" stroke-linejoin="round"/>
<path d="M263.3 362.983C318.275 435.443 399.472 451.01 420.685 454.421C422.762 454.755 424.872 454.064 426.349 452.565C427.825 451.066 428.484 448.945 428.118 446.874C424.713 427.588 421.987 399.989 425.897 367.279C429.825 334.408 439.053 308.104 446.952 290.11C448.332 286.967 447.03 283.294 443.98 281.72C406.303 262.289 376.425 260.114 355.569 262.093L355.569 262.093C341.701 263.408 328.913 266.9 317.077 270.132C312.592 271.357 308.243 272.544 304.023 273.562C288.36 277.34 273.152 279.253 255.133 274.387L255.133 274.387C244.627 271.55 236.54 267.319 231.424 264.249C229.456 263.029 226.944 262.932 224.856 264.086C222.353 265.469 221.048 268.326 221.642 271.124C226.438 293.735 237.179 328.555 263.3 362.983ZM263.3 362.983L268.478 359.054M263.3 362.983L268.478 359.054M268.478 359.054C246.217 329.714 235.448 300.061 229.989 278.357L234.359 268.426C234.731 270.183 235.142 272.016 235.594 273.92C240.437 276.303 246.433 278.771 253.438 280.662C278.471 287.422 298.433 281.97 319.313 276.268C330.97 273.084 342.912 269.822 356.182 268.564C375.877 266.696 404.498 268.671 441 287.497C432.913 305.92 423.465 332.852 419.443 366.508C415.877 396.341 417.702 422.021 420.608 441.232C421.378 441.363 422.093 441.481 422.749 441.586L421.717 448.004L415.316 449.134C415.182 448.373 415.048 447.599 414.916 446.813C387.172 441.545 317.168 423.23 268.478 359.054Z" fill="#EA9127" stroke="white" stroke-width="13" stroke-linejoin="round"/>
<path d="M281.791 368.19C279.249 368.272 276.988 369.829 276.005 372.175C275.022 374.522 275.498 377.225 277.223 379.095C282.623 384.947 288.557 390.78 295.078 396.482L295.078 396.482C337.719 433.761 385.917 448.322 420.573 454.403C422.642 454.766 424.76 454.106 426.257 452.631C427.754 451.157 428.446 449.05 428.115 446.975C422.956 414.699 420.775 369.425 435.611 319.623L435.611 319.623C438.945 308.428 442.818 298.087 446.958 288.6C448.3 285.526 447.081 281.935 444.145 280.312C441.209 278.689 437.521 279.566 435.63 282.338C424.292 298.962 396.562 334.524 347.327 354.444L347.326 354.445C321.69 364.817 298.368 367.657 281.791 368.19Z" fill="#903518" stroke="white" stroke-width="13" stroke-linejoin="round"/>
<path d="M272.781 65.4418C271.417 64.0548 269.504 63.3517 267.566 63.5256C265.629 63.6995 263.871 64.7321 262.775 66.3398C252.833 80.9328 241.582 100.488 232.523 124.942C218.984 161.488 215.83 194.154 215.501 216.515C215.461 219.179 217.052 221.597 219.514 222.616C221.976 223.635 224.81 223.049 226.665 221.137C231.457 216.198 236.229 213.145 240.364 211.184L240.364 211.183C256.715 203.426 275.269 207.083 291.1 213.876C302.563 218.795 311.867 225.054 316.622 228.536C317.992 229.616 319.172 230.509 320.12 231.215C322.956 233.325 326.959 232.781 329.13 229.991C331.301 227.201 330.844 223.187 328.101 220.956C327.602 220.551 326.368 219.566 324.51 218.199C311.292 207.738 279.799 178.993 271.48 131.701C267.012 106.304 270.853 84.8574 274.421 71.7015C275.026 69.4721 274.402 67.0892 272.782 65.4423L272.781 65.4418Z" fill="#F6D365" stroke="white" stroke-width="13" stroke-linejoin="round"/>
<path d="M232.911 263.745C231.676 262.321 229.885 261.504 228.001 261.504H228C226.051 261.504 224.204 262.379 222.97 263.887C221.735 265.396 221.243 267.379 221.629 269.29C224.811 285.057 230.762 306.297 242.489 329.454L248.189 326.568L242.489 329.455C253.831 351.851 266.855 368.693 277.343 380.351C278.627 381.778 280.475 382.565 282.393 382.5C300.717 381.885 334.639 378.271 371.402 358.566C412.747 336.406 436.075 305.478 446.434 289.697C448.168 287.055 447.751 283.549 445.445 281.387C443.139 279.226 439.613 279.037 437.089 280.939C429.286 286.818 370.476 329.429 301.172 308.695C265.874 298.135 243.399 275.837 232.911 263.745Z" fill="#CC5520" stroke="white" stroke-width="13" stroke-linejoin="round"/>
<path d="M409.872 7.52074C417.761 12.4597 428.948 20.752 439.262 33.7163L409.872 7.52074ZM409.872 7.52074C408.844 6.86507 407.636 6.5 406.375 6.5H406.375C403.96 6.5 401.789 7.83155 400.668 9.88626C396.098 17.9472 390.11 30.8616 387.637 47.6988L387.637 47.699C385.714 60.7954 386.548 71.985 387.806 80.0072C388.105 81.9151 389.237 83.5912 390.895 84.5811C392.554 85.5711 394.566 85.7724 396.388 85.1305C404.202 82.3768 412.846 79.6993 422.269 77.3155C432.518 74.7226 442.148 72.8675 450.968 71.5387C452.927 71.2436 454.645 70.0713 455.633 68.3544C456.622 66.6375 456.773 64.5636 456.045 62.7213C452.971 54.9459 447.85 44.5102 439.262 33.7167L409.872 7.52074Z" fill="#EA9127" stroke="white" stroke-width="13" stroke-linejoin="round"/>
<path d="M593.015 12.4988C591.925 12.4988 590.853 12.7728 589.897 13.2956C582.239 17.4823 571.423 24.5302 560.857 35.8758C550.116 47.4082 543.755 58.9562 540.085 67.0141C539.277 68.7889 539.308 70.8328 540.17 72.5819C541.032 74.3311 542.634 75.6007 544.534 76.0406C552.888 77.9747 561.965 80.4699 571.579 83.7106L571.579 83.7107C581.141 86.9337 589.842 90.4255 597.642 93.9284C599.418 94.7261 601.459 94.6854 603.202 93.8176C604.945 92.9498 606.207 91.3463 606.641 89.4482C608.591 80.922 610.57 67.7439 608.831 51.8072C607.135 36.258 602.555 24.0819 598.907 16.2537C597.84 13.9632 595.542 12.4988 593.016 12.4988H593.015Z" fill="#EA9127" stroke="white" stroke-width="13" stroke-linejoin="round"/>
<path d="M387.718 135.59C389.662 154.389 393.668 170.405 397.764 183.008C398.599 185.579 400.939 187.364 403.639 187.492C406.339 187.619 408.836 186.063 409.91 183.582C420.145 159.948 432.737 145.316 442.757 136.14L442.757 136.14C444.221 134.799 445.799 133.441 447.435 132.033C455.565 125.035 465.131 116.801 469.345 103.277C473.264 90.6971 471.095 78.9557 468.694 71.0998C467.788 68.1324 464.91 66.2196 461.823 66.5321C452.525 67.4735 442.118 69.0623 430.906 71.6733C415.638 75.2287 402.443 79.8485 391.524 84.4451C389.323 85.3716 387.808 87.4303 387.576 89.807C386.351 102.408 385.892 117.953 387.718 135.59ZM387.718 135.59L394.183 134.921M387.718 135.59L394.183 134.921M394.183 134.921C392.41 117.784 392.856 102.68 394.046 90.4359C404.674 85.9617 417.518 81.4648 432.38 78.0039C443.294 75.4624 453.425 73.9155 462.478 72.999C464.693 80.2473 466.509 90.5267 463.139 101.343C459.53 112.927 451.644 119.759 443.574 126.75C441.833 128.259 440.084 129.774 438.367 131.346C429.085 139.846 417.841 152.671 408.045 172.209C408.729 174.572 409.427 176.834 410.127 178.99L403.946 180.999L397.981 178.416C399.002 176.057 400.047 173.779 401.111 171.578C398.206 161.095 395.617 148.787 394.183 134.921Z" fill="#E39334" stroke="white" stroke-width="13" stroke-linejoin="round"/>
<path d="M513.387 64.5128C497.981 63.1254 484.12 63.3108 472.301 64.1825C469.961 64.3109 467.84 65.699 466.803 67.8522L466.803 67.8532C466.079 69.3562 465.971 71.0547 466.452 72.6036C467.707 76.8959 469.191 83.9361 468.406 92.5733L468.406 92.574C468.087 96.0805 467.348 103.252 463.348 110.905L463.348 110.905C460.936 115.52 458.555 118.015 454.745 121.558C454.248 122.02 453.728 122.498 453.186 122.997C449.405 126.477 444.51 130.983 438.105 138.459L438.105 138.459C434.365 142.824 431.522 146.551 429.774 148.915C428.637 150.452 428.234 152.413 428.674 154.274C429.114 156.136 430.351 157.709 432.057 158.575C447.426 166.38 462.796 174.186 478.165 181.992L493.53 189.795C495.427 190.758 497.675 190.733 499.549 189.726C504.728 186.944 519.177 178.848 533.404 165.151C547.625 151.46 561.971 131.833 566.239 105.997C567.471 98.5434 568.024 89.5908 566.859 79.345C566.564 76.7515 564.746 74.586 562.243 73.8461C548.944 69.9148 532.469 66.2317 513.387 64.5128L513.387 64.5128Z" fill="#F6D365" stroke="white" stroke-width="13" stroke-linejoin="round"/>
<path d="M608.2 94.1833C607.909 91.7114 606.261 89.7137 604.071 88.8734L572.572 75.9816C570.507 75.1363 568.152 75.4097 566.335 76.7058C564.518 78.0019 563.493 80.1395 563.621 82.3676C564.159 91.8097 563.824 108.593 555.988 127.265L555.987 127.265C550.627 140.038 543.577 149.362 538.158 155.415C536.165 157.64 535.946 160.937 537.626 163.407C539.306 165.876 542.453 166.883 545.255 165.847C546.46 165.402 558.211 161.369 569.11 168.444C580.515 175.848 581.163 189.079 581.189 190.153C581.262 193.213 583.461 195.808 586.467 196.382C589.474 196.956 592.474 195.355 593.67 192.537C601.395 174.34 609.248 148.714 609.494 117.768C609.562 109.354 609.059 101.467 608.2 94.1833Z" fill="#EA9127" stroke="white" stroke-width="13" stroke-linejoin="round"/>
<path d="M410.155 186.864C414.376 188.263 420.031 189.945 426.807 191.42L410.155 186.864ZM410.155 186.864C408.174 186.169 405.908 186.454 404.124 187.779C401.514 189.717 400.738 193.285 402.306 196.133C416.673 222.219 431.04 248.304 445.407 274.39C446.146 275.732 447.336 276.77 448.767 277.321C458.613 281.107 473.666 285.6 492.478 286.379H492.478C512.323 287.201 528.43 283.562 538.763 280.374C540.234 279.92 541.496 278.959 542.324 277.662C552.324 262.007 562.323 246.353 572.322 230.698C578.374 221.224 584.426 211.749 590.478 202.275C591.923 200.013 591.829 197.095 590.241 194.931C588.653 192.767 585.899 191.801 583.307 192.5C578.281 193.856 571.687 195.376 563.869 196.494L563.869 196.494C557.306 197.432 549.226 198.179 538.543 198.131C528.001 198.084 522.581 197.299 517.239 196.437C516.864 196.377 516.488 196.316 516.111 196.254C510.829 195.396 505.17 194.476 495.229 194.146L495.228 194.146C486.205 193.847 481.299 194.287 476.595 194.709C476.292 194.736 475.991 194.763 475.689 194.79C470.986 195.208 466.045 195.579 455.956 195.086L455.956 195.086C443.86 194.494 434.846 193.169 426.807 191.42L410.155 186.864Z" fill="#F6D365" stroke="white" stroke-width="13" stroke-linejoin="round"/>
<path d="M454.948 281.865C453.778 280.447 452.062 279.59 450.225 279.507C448.389 279.424 446.603 280.123 445.31 281.431L445.31 281.431C444.745 282.003 444.291 282.674 443.97 283.411C438.699 295.544 433.73 309.196 429.663 324.323C415.946 375.337 418.521 420.691 423.476 452.016C423.956 455.053 426.5 457.339 429.571 457.492C432.643 457.646 435.401 455.626 436.183 452.652C440.766 435.204 447.471 414.799 457.467 392.815L451.55 390.125L457.467 392.815C468.336 368.911 480.373 349.133 491.327 333.468C493 331.075 492.873 327.86 491.015 325.608C486.779 320.47 482.544 315.333 478.308 310.196C470.521 300.752 462.734 291.309 454.948 281.865Z" fill="#F6D365" stroke="white" stroke-width="13" stroke-linejoin="round"/>
<path d="M521.82 290.559C506.375 306.738 487.989 329.043 471.162 358.077C451.788 391.505 440.976 422.651 434.717 446.297C434.249 448.064 434.547 449.946 435.537 451.482C436.527 453.018 438.119 454.066 439.921 454.37C463.158 458.282 482.266 457.847 495.411 456.684C495.411 456.684 495.411 456.684 495.411 456.684L494.838 450.209M521.82 290.559L531.269 299.488C529.79 301.036 528.284 302.643 526.753 304.308C527.403 320.83 529.646 334.122 531.713 343.606C534.681 357.22 538.469 368.416 541.743 378.09C547.908 396.307 552.247 409.128 545.838 422.547C541.274 432.103 533.178 437.944 530.548 439.841L530.548 439.841C524.363 444.303 515.79 448.355 494.838 450.209M521.82 290.559C521.869 290.506 521.919 290.455 521.97 290.404C523.189 289.184 524.843 288.499 526.568 288.499H526.568C529.17 288.499 531.521 290.05 532.544 292.442C532.908 293.293 533.079 294.192 533.068 295.082L521.82 290.559ZM494.838 450.209C483.351 451.226 467.123 451.672 447.462 448.951L494.838 450.209Z" fill="#903518" stroke="white" stroke-width="13" stroke-linejoin="round"/>
<path d="M419.501 176.5C419.538 183.314 421.599 188.559 423.004 191.454C424.127 193.768 426.508 195.202 429.079 195.112C436.062 194.869 443.647 194.895 451.744 195.343C464.023 196.024 475.105 197.544 484.784 199.388C487.614 199.927 490.462 198.539 491.78 195.977C493.098 193.415 492.573 190.291 490.488 188.301L490.488 188.301C490.167 187.994 489.815 187.721 489.438 187.486C484.071 184.141 476.774 179.772 467.867 174.955L467.867 174.955C463.088 172.371 459.329 170.461 455.299 168.416L455.298 168.415C449.304 165.374 441.468 161.493 432.12 157.116C428.989 155.65 425.258 156.892 423.63 159.943C422.067 162.87 419.458 168.732 419.501 176.5ZM419.501 176.5L426.001 176.465M419.501 176.5L426.001 176.465M426.001 176.465C425.986 173.671 426.394 171.177 426.966 169.057C426.847 169.001 426.728 168.946 426.608 168.89L428.082 165.742C428.53 164.636 428.984 163.715 429.364 163.003C438.639 167.345 446.412 171.196 452.357 174.212C456.384 176.256 460.077 178.132 464.775 180.673C466.898 181.821 468.928 182.943 470.86 184.031C476.663 184.762 482.125 185.647 487.217 186.618L486.001 193.001L486.001 193.002L486 193.003L485.998 193.005L482.562 198.519C478.877 196.222 474.247 193.424 468.783 190.324C463.5 189.684 457.934 189.176 452.104 188.853C443.797 188.393 436.016 188.366 428.852 188.616C427.701 186.245 426.031 181.982 426.001 176.465Z" fill="#532322" stroke="white" stroke-width="13" stroke-linejoin="round"/>
<path d="M497.896 198.238C496.838 195.347 497.952 192.11 500.566 190.484C510.676 184.192 521.77 177.863 533.843 171.759L497.896 198.238ZM497.896 198.238C498.955 201.128 501.896 202.88 504.942 202.434M497.896 198.238L504.942 202.434M504.942 202.434C514.267 201.067 524.95 200.163 536.744 200.31L536.745 200.31C544.817 200.41 552.316 200.988 559.156 201.84C561.842 202.174 564.454 200.809 565.713 198.412C567.303 195.386 569.597 190.104 570.294 183.083L570.294 183.082C571.184 174.102 568.985 167.063 567.688 163.677C567.056 162.029 565.782 160.708 564.156 160.018M504.942 202.434L564.156 160.018M564.156 160.018C562.531 159.329 560.696 159.33 559.071 160.022M564.156 160.018L559.071 160.022M559.071 160.022C550.974 163.47 542.539 167.361 533.843 171.759L559.071 160.022Z" fill="#532322" stroke="white" stroke-width="13" stroke-linejoin="round"/>
<path d="M463.684 276.723C460.991 276.001 458.138 277.076 456.592 279.395C455.045 281.715 455.15 284.762 456.852 286.97C464.196 296.495 471.54 306.02 478.885 315.546C481.564 319.02 484.243 322.495 486.922 325.97C488.102 327.5 489.902 328.426 491.833 328.497C493.764 328.567 495.626 327.775 496.914 326.334C502.176 320.453 507.437 314.571 512.698 308.69C518.413 302.3 524.129 295.91 529.845 289.52C531.706 287.439 532.031 284.401 530.65 281.973C529.27 279.546 526.493 278.272 523.753 278.807C515.726 280.377 505.421 281.626 493.459 281.197L493.459 281.197C481.637 280.773 471.539 278.829 463.684 276.723Z" fill="#532322" stroke="white" stroke-width="13" stroke-linejoin="round"/>
<path d="M497.502 196.177C497.44 193.868 498.607 191.7 500.569 190.481C506.072 187.061 513.543 182.613 522.625 177.777L497.502 196.177ZM497.502 196.177C497.564 198.485 498.847 200.588 500.871 201.699M497.502 196.177L500.871 201.699M500.871 201.699L500.872 201.7C502.105 202.377 503.523 202.635 504.916 202.438M500.871 201.699L504.916 202.438M564.122 159.997C565.783 160.685 567.085 162.031 567.718 163.714C568.984 167.081 570.988 173.687 570.392 182.146L564.122 159.997ZM564.122 159.997C562.46 159.309 560.588 159.34 558.95 160.082M564.122 159.997L558.95 160.082M558.95 160.082C549.475 164.378 541.514 168.222 535.42 171.247L558.95 160.082ZM566.028 198.282C564.805 200.748 562.161 202.177 559.428 201.848C552.652 201.033 545.272 200.479 537.362 200.368L566.028 198.282ZM566.028 198.282C567.572 195.169 569.868 189.572 570.392 182.147L566.028 198.282ZM504.916 202.438C514.472 201.079 525.367 200.199 537.362 200.368L504.916 202.438ZM504.001 196.004V196.004ZM535.419 171.248C531.323 173.28 527.5 175.181 522.626 177.777L535.419 171.248Z" fill="#532322" stroke="white" stroke-width="13" stroke-linejoin="round"/>
<path d="M399.247 185.649C398.462 184.883 397.884 183.93 397.566 182.879C391.633 163.251 386.778 139.031 386.512 111.245C386.44 103.77 386.706 96.6202 387.223 89.8287C387.409 87.3867 388.951 85.2564 391.213 84.3178C401.818 79.9179 414.511 75.5056 429.112 72.0252L430.617 78.3406L429.112 72.0252C440.831 69.2319 451.681 67.5385 461.327 66.534C463.663 66.2907 465.948 67.3264 467.305 69.2432C468.662 71.1599 468.88 73.6596 467.874 75.782C465.788 80.1853 462.187 86.9571 456.427 94.2627C448.02 104.926 439.618 110.883 432.276 115.56C431.058 116.336 429.901 117.06 428.799 117.75C423.064 121.341 418.821 123.997 415.268 128.096L399.247 185.649ZM399.247 185.649L399.248 185.65C401.31 187.663 404.451 188.078 406.965 186.67M399.247 185.649L406.965 186.67M406.965 186.67C409.479 185.262 410.766 182.367 410.127 179.557M406.965 186.67L410.127 179.557M410.127 179.557C403.032 148.364 409.555 134.689 415.268 128.097L410.127 179.557Z" fill="#CC5520" stroke="white" stroke-width="13" stroke-linejoin="round"/>
<path d="M543.07 148.34C544.997 148.775 547.017 148.31 548.56 147.077C549.065 146.672 549.502 146.2 549.86 145.678C555.166 138.102 563.042 124.641 566.165 106.203C567.958 95.6148 567.676 86.3754 566.881 79.3754C566.585 76.7718 564.755 74.6005 562.239 73.8683C549.285 70.0984 533.312 66.5407 514.841 64.7347C498.065 63.0943 483.081 63.275 470.527 64.1926C468.598 64.3336 466.833 65.3255 465.71 66.8991C464.587 68.4727 464.222 70.4646 464.715 72.3339C467.248 81.929 475.489 107.974 500.722 128.113C516.948 141.064 533.436 146.166 543.07 148.34Z" fill="#CC5520" stroke="white" stroke-width="13" stroke-linejoin="round"/>
<path d="M563.309 78.4615C564.99 75.8687 568.263 74.8176 571.139 75.9473L604.102 88.8947C606.328 89.7692 607.895 91.7959 608.179 94.171C609.5 105.184 610.107 118.551 608.679 133.617M563.309 78.4615L561.927 98.3206C561.605 101.431 561.152 104.351 560.621 107.065C560.095 109.757 561.315 112.49 563.671 113.895C569.462 117.35 573.414 121.166 576.133 124.468M563.309 78.4615C562.517 79.6831 562.182 81.0877 562.279 82.4582M563.309 78.4615L567 108.313M608.679 133.617L602.208 133.004M608.679 133.617L602.208 133.004M608.679 133.617C606.323 158.484 599.312 178.608 593.008 192.658C591.566 195.872 587.827 197.352 584.576 195.997C581.325 194.641 579.745 190.942 581.014 187.656C581.834 185.533 585.575 175.446 586.532 162.865C587.492 150.247 585.6 135.963 576.133 124.468M602.208 133.004C601.604 139.388 600.681 145.449 599.537 151.162C599.864 155.586 599.798 159.864 599.495 163.851C598.398 178.267 594.154 189.716 593.141 192.338L587.078 189.997L581.147 187.337C585.381 177.901 589.944 165.557 592.985 150.763C592.094 140.483 588.85 129.684 581.151 120.336M602.208 133.004C603.585 118.471 603 105.574 601.726 94.9447L575.389 84.6C575.356 83.5803 575.31 82.5843 575.252 81.6131C575.157 80.004 574.467 78.4878 573.317 77.3588L573.316 77.3583L568.763 81.9973L568.763 81.9978L568.763 81.9978L562.275 82.3825C562.276 82.4077 562.278 82.4329 562.279 82.4582M576.133 124.468L581.151 120.336M576.133 124.468L581.151 120.336M581.151 120.336C578.014 116.527 573.507 112.193 567 108.313M567 108.313C567.566 105.42 568.049 102.307 568.393 98.9899C568.754 95.5003 568.92 92.1785 568.945 89.0522L566.387 88.0473L568.762 81.9989L567 108.313ZM562.279 82.4582C562.554 87.1493 562.532 92.485 561.927 98.3201L562.279 82.4582Z" fill="#CC5520" stroke="white" stroke-width="13" stroke-linejoin="round"/>
<path d="M542.418 75.1324C539.748 73.3687 538.758 69.9232 540.086 67.0113C543.635 59.2302 549.44 48.7406 558.814 38.133L558.814 38.1329C570.008 25.4661 581.758 17.7579 589.904 13.2977C591.481 12.434 593.345 12.2623 595.054 12.8233C596.762 13.3844 598.162 14.6281 598.92 16.2587C602.374 23.6895 606.269 34.1574 608.231 47.1454L608.231 47.1458C610.94 65.0827 608.787 80.0313 606.656 89.4354C605.952 92.543 603.099 94.682 599.918 94.4867C596.738 94.2913 594.168 91.8193 593.849 88.6489C592.876 78.9679 586.748 70.7959 578.239 67.419L542.418 75.1324ZM542.418 75.1324C545.089 76.8961 548.646 76.4533 550.803 74.0885M542.418 75.1324L550.803 74.0885M550.803 74.0885C557.948 66.2538 568.921 63.7214 578.239 67.4189L550.803 74.0885Z" fill="#CC5520" stroke="white" stroke-width="13" stroke-linejoin="round"/>
<path d="M387.805 80.0074C388.301 83.1696 391.026 85.5 394.227 85.5H394.227C397.464 85.5 400.207 83.1187 400.663 79.9142C401.962 70.7646 408.322 63.1429 416.971 60.2936C426.838 57.0434 438.227 60.4973 444.855 69.0833C446.835 71.6476 450.4 72.3628 453.216 70.7602C456.031 69.1577 457.237 65.7266 456.042 62.7152C452.552 53.9121 446.2 41.0828 434.652 28.2782L434.652 28.2782C425.883 18.5546 416.861 11.8898 409.82 7.48826C408.318 6.54969 406.499 6.26429 404.782 6.69802C403.065 7.13175 401.6 8.24708 400.725 9.78618C396.236 17.6771 390.346 30.2918 387.78 46.7541C385.664 60.3277 386.531 71.8842 387.805 80.0074Z" fill="#CC5520" stroke="white" stroke-width="13" stroke-linejoin="round"/>
<path d="M434.75 446.215C433.843 449.391 435.462 452.742 438.513 454.006C441.565 455.27 445.079 454.044 446.682 451.157C451.998 441.586 462.055 424.974 476.397 410.294C490.777 395.575 508.905 383.363 530.37 381.405L530.37 381.405C533.356 381.133 536.462 381.053 539.689 381.208C541.849 381.311 543.92 380.333 545.212 378.599C546.504 376.865 546.85 374.601 546.133 372.561C543.876 366.136 541.714 359.161 539.777 351.658L539.777 351.658C538.626 347.201 537.639 342.877 536.789 338.703C536.386 336.724 535.086 335.045 533.271 334.159C531.456 333.273 529.333 333.281 527.525 334.181C513.82 340.998 490.566 354.776 469.444 380.289C469.43 380.306 469.417 380.322 469.403 380.339C448.32 405.823 438.987 431.384 434.75 446.215Z" fill="#CC5520" stroke="white" stroke-width="13" stroke-linejoin="round"/>
<path d="M426.662 335.764C421.395 360.68 417.817 391.478 420.312 426.379L420.312 426.379C420.954 435.349 421.946 443.894 423.188 451.987C423.655 455.031 426.195 457.33 429.271 457.492C432.346 457.654 435.114 455.636 435.898 452.657C437.805 445.421 439.974 437.905 442.447 430.153L426.662 335.764ZM426.662 335.764C427.191 333.022 429.448 330.865 432.316 330.542C435.603 330.171 438.645 332.329 439.381 335.554C440.851 341.994 442.322 348.434 443.792 354.875C446.974 368.809 450.155 382.743 453.337 396.677C453.63 397.959 453.527 399.3 453.041 400.523C449.399 409.695 445.821 419.578 442.447 430.153L426.662 335.764Z" fill="#CC5520" stroke="white" stroke-width="13" stroke-linejoin="round"/>
<path d="M433.593 212.716C428.305 209.047 420.71 202.478 414.031 190.473C413.918 190.269 413.806 190.065 413.693 189.86C411.963 186.721 408.018 185.574 404.875 187.298C401.731 189.021 400.577 192.964 402.294 196.111C402.415 196.332 402.536 196.552 402.657 196.77C416.901 222.623 431.145 248.476 445.388 274.329C446.104 275.663 447.283 276.747 448.783 277.323C458.763 281.16 474.344 285.817 493.894 286.43C513.087 287.031 528.679 283.502 538.81 280.377C540.281 279.923 541.543 278.962 542.372 277.664L590.478 202.343C592.066 199.857 591.781 196.614 589.783 194.443C587.786 192.272 584.578 191.719 581.969 193.094C575.592 196.456 564.569 201.92 550.28 207.123L550.28 207.123C535.702 212.432 515.046 219.916 493.489 222.952C471.871 225.995 450.436 224.402 433.593 212.716Z" fill="#EA9127" stroke="white" stroke-width="13" stroke-linejoin="round"/>
<path d="M467.396 65.4614C465.748 67.1505 465.145 69.5999 465.82 71.8608C467.241 76.6151 469.001 84.8178 467.668 94.7981L467.668 94.7981C467.651 94.9273 467.633 95.0607 467.615 95.1982C467.109 99.0251 466.185 106.012 461.771 113.033C459.169 117.172 457.279 119.016 453.565 122.64C451.937 124.228 449.959 126.159 447.416 128.775L447.416 128.775C442.794 133.53 436.498 140.541 429.717 150.003C428.557 151.621 428.203 153.682 428.756 155.595C429.309 157.508 430.709 159.062 432.554 159.811C440.32 162.966 449.428 165.83 459.761 167.613L460.866 161.207L459.761 167.613C494.766 173.652 523.847 163.862 539.458 157.015C540.516 156.55 541.432 155.812 542.111 154.875C543.033 153.601 543.955 152.328 544.877 151.055C546.006 149.497 547.135 147.939 548.264 146.38C549.341 144.893 549.739 143.02 549.36 141.223C548.98 139.426 547.858 137.874 546.272 136.95C532.587 128.979 514.369 116.022 497.371 95.5494L497.371 95.5491C489.051 85.5306 482.648 75.6676 477.727 66.8359C476.728 65.043 474.941 63.8272 472.907 63.5564C470.872 63.2856 468.829 63.9917 467.396 65.4609L467.396 65.4614Z" fill="#EA9127" stroke="white" stroke-width="13" stroke-linejoin="round"/>
<path d="M434.483 328.877C432.501 328.096 430.263 328.336 428.491 329.518C426.72 330.7 425.64 332.675 425.601 334.804C425.456 342.64 425.463 350.686 425.648 358.932C426.177 382.482 428.084 404.526 430.835 424.874C431.238 427.857 433.637 430.173 436.631 430.471C439.626 430.77 442.435 428.973 443.419 426.129C450.576 405.449 460.634 382.147 474.976 357.901C480.337 348.838 485.827 340.437 491.309 332.677C493.006 330.275 492.878 327.032 490.998 324.771L489.367 322.81L487.735 320.847C486.486 319.345 484.628 318.485 482.675 318.504C480.721 318.523 478.88 319.419 477.66 320.945C475.731 323.358 473.269 325.752 470.128 327.729C463.122 332.137 455.222 332.88 448.3 332.199C441.391 331.519 435.983 329.468 434.483 328.877Z" fill="#EA9127" stroke="white" stroke-width="13" stroke-linejoin="round"/>
<path d="M434.5 447.999C434.5 451.211 436.847 453.942 440.023 454.425C443.199 454.908 446.252 452.998 447.206 449.931C451.707 435.474 461.205 411.42 481.525 387.542C500.523 365.218 520.988 352.437 534.012 345.627C536.564 344.292 537.934 341.438 537.378 338.612C535.712 330.145 534.354 320.687 533.652 310.362L533.652 310.362C533.288 305.001 533.132 299.872 533.134 295.001C533.135 292.345 531.519 289.955 529.053 288.966C526.588 287.977 523.769 288.588 521.934 290.509C508.348 304.73 493.373 322.745 479.187 344.961C454.935 382.942 441.96 419.157 434.719 446.324C434.574 446.87 434.5 447.433 434.5 447.998V447.999Z" fill="#EA9127" stroke="white" stroke-width="13" stroke-linejoin="round"/>
<path d="M411.982 7.68659C415.801 10.3246 419.867 13.462 424.011 17.1879L411.982 7.68659ZM411.982 7.68659C410.903 6.92676 409.601 6.5 408.238 6.5H408.237C405.804 6.5 403.612 7.85404 402.499 9.94593C400.1 14.2905 397.629 19.4756 395.46 25.4839L411.982 7.68659ZM395.104 58.4379C391.63 57.9541 389.166 54.8014 389.537 51.3135C390.288 44.2381 391.915 35.3013 395.46 25.4843L395.104 58.4379ZM395.104 58.4379C398.578 58.9217 401.809 56.5621 402.405 53.1057M395.104 58.4379L402.405 53.1057M402.405 53.1057C402.741 51.162 404.299 44.1223 409.704 40.7545L402.405 53.1057ZM441.924 48.1858C439.158 50.2801 435.235 49.8331 433.011 47.1704C425.583 38.2766 415.485 37.1526 409.704 40.7544L441.924 48.1858ZM441.924 48.1858C444.69 46.0916 445.323 42.1944 443.364 39.3317M441.924 48.1858L443.364 39.3317M443.364 39.3317C438.753 32.5981 432.455 24.7796 424.011 17.1883L443.364 39.3317Z" fill="#903518" stroke="white" stroke-width="13" stroke-linejoin="round"/>
<path d="M593.29 12.4988C592.181 12.4988 591.112 12.7814 590.17 13.2967C585.841 15.6211 581.106 18.5244 576.219 22.1545C567.392 28.7115 560.772 35.6318 555.964 41.5255C553.77 44.214 554.075 48.1512 556.656 50.4699C559.238 52.7886 563.185 52.6712 565.624 50.2033C573.425 42.3088 583.871 41.6843 589.802 45.7055L589.803 45.7057C595.451 49.535 596.387 56.9481 596.524 58.5496C596.82 62.0367 599.824 64.663 603.32 64.491C606.815 64.319 609.547 61.4105 609.5 57.9112C609.407 51.0287 608.542 41.9695 605.471 31.8248L605.471 31.8243C603.619 25.7089 601.347 20.4607 599.123 16.1276C598.047 13.9411 595.805 12.4988 593.291 12.4988H593.29Z" fill="#903518" stroke="white" stroke-width="13" stroke-linejoin="round"/>
<path d="M538.475 280.35C539.951 279.897 541.217 278.933 542.047 277.632C551.428 262.922 560.809 248.211 570.189 233.501L578.481 220.498C580.294 217.654 579.631 213.895 576.954 211.844C574.277 209.792 570.475 210.129 568.201 212.62C557.844 223.961 536.703 243.94 503.68 255.646C482.264 263.237 463.177 264.755 450.029 264.696C446.889 264.682 444.188 266.915 443.611 270.001C443.034 273.087 444.745 276.145 447.678 277.267C458.371 281.358 475.339 286.355 496.601 286.5C514.104 286.619 528.512 283.41 538.475 280.35Z" fill="#CC5520" stroke="white" stroke-width="13" stroke-linejoin="round"/>
<path d="M268.027 69.9996C255.015 88.6054 235.765 121.233 226.425 166.031C218.614 203.496 220.681 235.336 223.72 256.176C244.125 270.907 260.768 273.882 271.971 273.996C298.104 274.261 327.737 259.292 356.076 258.613C361.937 258.474 367.975 258.653 367.975 258.653C380.295 259.019 390.56 260.332 398 261.564C391.457 259.736 287.961 229.139 266.618 140.512C259.927 112.729 263.355 87.7409 268.027 69.9996Z" fill="#EA9127"/>
<path d="M227 269.775C231.671 291.796 242.117 325.628 267.478 359.054C320.872 429.43 399.898 444.656 420.717 448.004C417.231 428.258 414.44 399.999 418.443 366.508C422.465 332.852 431.913 305.92 440 287.497C403.498 268.671 374.877 266.696 355.182 268.564C318.141 272.077 291.445 291.196 252.438 280.662C241.125 277.608 232.446 273.049 227.001 269.775L227 269.775Z" fill="#EA9127"/>
<path d="M281 374.687C298.119 374.136 322.238 371.203 348.765 360.47C399.706 339.859 428.336 303.104 440 286C435.762 295.712 431.796 306.303 428.381 317.767C413.186 368.777 415.437 415.091 420.696 448C386.72 442.039 339.79 427.812 298.356 391.588C292.018 386.046 286.25 380.377 281 374.687Z" fill="#903518"/>
<path d="M267.147 69.9996C257.441 84.2452 246.46 103.332 237.618 127.2C224.403 162.871 221.322 194.765 221 216.611C226.382 211.063 231.808 207.573 236.578 205.311C274.316 187.408 319.592 223.228 323 226C312.581 218.247 273.674 187.375 264.078 132.827C259.392 106.187 263.425 83.727 267.148 70.0001L267.147 69.9996Z" fill="#F6D365"/>
<path d="M227.001 268.004C237.874 280.541 261.335 303.861 298.309 314.923C370.898 336.639 432.074 292.102 440 286.13C429.957 301.43 407.355 331.386 367.332 352.837C331.75 371.909 298.912 375.408 281.175 376.004C270.98 364.671 258.316 348.296 247.288 326.518C235.884 303.998 230.096 283.341 227 268.004H227.001Z" fill="#CC5520"/>
<path d="M405.375 13C401.064 20.5851 395.4 32.7623 393.068 48.6431C391.262 60.9446 392.044 71.4578 393.227 79C401.213 76.1859 410.046 73.4498 419.674 71.014C430.148 68.3645 439.988 66.4689 449 65.1113C446.103 57.7826 441.275 47.9429 433.176 37.7634C423.425 25.5066 412.838 17.6674 405.375 13L405.375 13Z" fill="#EA9127"/>
<path d="M592.015 18.9988C584.792 22.9477 574.585 29.598 564.613 40.3058C554.475 51.1918 548.467 62.0963 545 69.7081C553.543 71.6859 562.825 74.2374 572.655 77.5512C582.433 80.8469 591.329 84.4173 599.305 87.9989C601.143 79.961 603.009 67.536 601.37 52.5121C599.771 37.8541 595.453 26.3758 592.016 18.9988H592.015Z" fill="#EA9127"/>
<path d="M393.046 90.4359C391.856 102.68 391.41 117.784 393.183 134.921C395.073 153.187 398.965 168.75 402.946 180.999C413.588 156.424 426.759 141.061 437.367 131.346C447.043 122.486 457.752 115.426 462.139 101.343C465.509 90.5267 463.693 80.2473 461.478 72.999C452.425 73.9155 442.294 75.4624 431.38 78.0039C416.518 81.4648 403.674 85.9617 393.046 90.4359Z" fill="#E39334"/>
<path d="M471.659 70.6728C473.07 75.4656 474.767 83.4002 473.879 93.1619C473.541 96.8814 472.716 105.099 468.109 113.915C462.288 125.055 456.119 126.258 442.041 142.688C438.429 146.903 435.685 150.501 434 152.78C454.491 163.186 474.982 173.593 495.473 184C505.393 178.671 550.896 152.932 558.826 104.937C559.971 98.0088 560.491 89.6632 559.401 80.0795C546.442 76.2489 530.392 72.661 511.804 70.9866C496.744 69.6304 483.2 69.8169 471.659 70.6738L471.659 70.6728Z" fill="#F6D365"/>
<path d="M600.745 94.9443C601.574 101.979 602.059 109.593 601.995 117.716C601.757 147.586 594.177 172.354 586.687 189.997C586.653 188.592 585.973 172.291 571.649 162.992C557.985 154.121 543.544 159.18 542 159.751C547.763 153.315 555.27 143.389 560.981 129.78C569.33 109.886 569.682 92.0229 569.11 81.9973C579.655 86.3131 590.2 90.6289 600.745 94.9447V94.9443Z" fill="#EA9127"/>
<path d="M407 192.997C421.366 219.083 435.733 245.168 450.1 271.254C459.481 274.862 473.825 279.142 491.747 279.885C510.654 280.668 526.001 277.201 535.846 274.163C551.897 249.034 567.949 223.905 584 198.776C578.773 200.186 571.917 201.767 563.789 202.928C556.933 203.908 548.536 204.68 537.514 204.631C515.589 204.533 514.445 201.321 494.013 200.643C475.622 200.033 475.53 202.6 454.639 201.578C442.197 200.97 432.827 199.599 424.425 197.771C417.322 196.226 411.402 194.46 407 192.998L407 192.997Z" fill="#F6D365"/>
<path d="M448.933 286C460.955 300.582 472.978 315.162 485 329.743C473.855 345.681 461.609 365.805 450.55 390.125C440.38 412.491 433.559 433.25 428.896 451C424.036 420.275 421.528 375.89 434.94 326.011C438.917 311.219 443.776 297.869 448.932 286.001L448.933 286Z" fill="#F6D365"/>
<path d="M525.568 294.999C510.395 310.888 492.323 332.802 475.786 361.336C456.764 394.157 446.147 424.739 440 447.96C462.576 451.761 481.115 451.335 493.838 450.209C514.79 448.355 523.363 444.303 529.548 439.841C532.177 437.944 540.274 432.103 544.838 422.547C554.651 402.002 539.269 382.858 530.713 343.606C528.271 332.401 525.583 315.88 525.568 294.999H525.568Z" fill="#903518"/>
<path d="M485 193.002C479.722 189.713 472.542 185.413 463.775 180.673C459.077 178.132 455.384 176.256 451.357 174.212C445.412 171.196 437.639 167.345 428.364 163.003C427.081 165.407 424.966 170.176 425.001 176.465C425.031 181.982 426.701 186.245 427.852 188.616C435.016 188.366 442.797 188.393 451.104 188.853C463.701 189.551 475.07 191.111 485 193.003L485 193.002Z" fill="#532322"/>
<path d="M503 196.002C512.96 189.804 523.887 183.57 535.776 177.559C544.34 173.229 552.645 169.397 560.618 166.002C561.715 168.865 563.579 174.836 562.825 182.441C562.236 188.381 560.295 192.845 558.959 195.39C551.899 194.511 544.158 193.913 535.825 193.81C523.649 193.659 512.623 194.592 503 196.002Z" fill="#532322"/>
<path d="M461 283.001C469.236 285.21 479.825 287.248 492.226 287.692C504.774 288.142 515.582 286.832 524 285.187C513.023 297.458 502.046 309.73 491.07 322.001C481.047 309.001 471.023 296.001 461 283.001Z" fill="#532322"/>
<path d="M503 196.002C508.408 192.641 515.752 188.268 524.681 183.514C529.466 180.965 533.218 179.1 537.309 177.07C543.348 174.072 551.239 170.261 560.634 166.002C561.707 168.857 563.416 174.485 562.908 181.69C562.462 188.01 560.508 192.766 559.205 195.394C552.219 194.554 544.61 193.983 536.453 193.868C524.085 193.695 512.852 194.602 503.001 196.002L503 196.002Z" fill="#532322"/>
<path d="M402.788 180.999C396.999 161.847 392.27 138.244 392.011 111.183C391.941 103.902 392.201 96.9377 392.704 90.3216C403.033 86.0359 415.397 81.7381 429.619 78.3481C441.034 75.6272 451.603 73.9776 461 72.999C459.052 77.1106 455.692 83.4276 450.322 90.2382C434.781 109.951 419.417 112.231 409.356 123.839C401.881 132.465 395.393 148.481 402.789 180.999L402.788 180.999Z" fill="#CC5520"/>
<path d="M543.501 142C534.436 139.954 518.974 135.162 503.777 123.033C480.147 104.173 472.39 79.7309 470 70.6753C482.242 69.7806 496.852 69.6045 513.208 71.2039C531.217 72.9647 546.791 76.4335 559.422 80.1094C560.165 86.6432 560.426 95.255 558.756 105.118C555.841 122.332 548.471 134.912 543.501 141.999V142Z" fill="#CC5520"/>
<path d="M567.763 81.9973C578.751 86.3131 589.738 90.6289 600.726 94.9447C602 105.574 602.585 118.471 601.208 133.004C598.936 156.992 592.171 176.417 586.078 189.997C587.91 185.251 602.049 146.926 580.151 120.336C577.014 116.527 572.507 112.193 566 108.313C566.566 105.42 567.049 102.307 567.393 98.9899C568.041 92.7333 568.061 87.0163 567.764 81.9978L567.763 81.9973Z" fill="#CC5520"/>
<path d="M545 69.7084C548.354 62.3548 553.837 52.4496 562.685 42.4372C573.249 30.483 584.339 23.2082 592.026 18.9988C595.284 26.0072 598.955 35.8754 600.804 48.1164C603.357 65.0222 601.329 79.1203 599.317 87.9989C598.111 76.0058 590.498 65.688 579.637 61.3773C567.722 56.6492 553.905 59.945 545 69.7084Z" fill="#CC5520"/>
<path d="M393.227 79C392.029 71.3636 391.215 60.5055 393.203 47.7551C395.613 32.2898 401.148 20.4293 405.374 13C412.032 17.162 420.551 23.4567 428.825 32.6315C439.718 44.7094 445.708 56.8094 449 65.1113C440.719 54.3844 426.471 49.9914 413.938 54.12C402.911 57.752 394.87 67.4327 393.227 79H393.227Z" fill="#CC5520"/>
<path d="M473.451 384.435C453.1 409.017 444.089 433.687 440 448.001C450.858 428.452 481.543 379.241 528.779 374.932C532.058 374.633 535.466 374.545 539 374.715C536.686 368.127 534.469 360.975 532.483 353.283C531.303 348.712 530.291 344.278 529.419 340C516.221 346.566 493.808 359.844 473.451 384.434V384.435Z" fill="#CC5520"/>
<path d="M432.044 337.002C426.866 361.46 423.348 391.679 425.796 425.915C426.424 434.702 427.396 443.073 428.613 451.001C430.546 443.662 432.747 436.04 435.254 428.177C438.676 417.452 442.306 407.427 446 398.124C441.348 377.749 436.696 357.375 432.044 337.001V337.002Z" fill="#CC5520"/>
<path d="M450.116 271.256C435.744 245.17 421.372 219.084 407 192.997C414.323 206.416 422.836 213.857 428.888 218.056C466.469 244.13 522.454 223.809 551.504 213.231C566.152 207.897 577.454 202.295 584 198.844C567.965 223.951 551.929 249.058 535.894 274.166C526.241 277.143 511.384 280.506 493.098 279.933C474.47 279.349 459.624 274.912 450.116 271.256H450.116Z" fill="#EA9127"/>
<path d="M471.048 70.0001C472.632 75.2991 474.605 84.4722 473.111 95.6583C472.615 99.378 471.673 107.904 466.274 116.492C462.044 123.22 458.777 125.384 451.077 133.306C446.63 137.88 440.555 144.643 434 153.789C441.395 156.793 450.053 159.514 459.866 161.207C493.105 166.942 520.817 157.655 535.847 151.062C537.898 148.231 539.948 145.399 542 142.567C527.835 134.316 508.97 120.899 491.37 99.7016C482.759 89.3313 476.135 79.1277 471.049 69.9996L471.048 70.0001Z" fill="#EA9127"/>
<path d="M472.589 333.231C455.308 344.105 434.566 336.29 431.1 334.924C430.956 342.674 430.964 350.631 431.147 358.786C431.669 382.076 433.555 403.878 436.276 424.003C443.555 402.97 453.788 379.263 468.381 354.592C473.836 345.37 479.423 336.822 485 328.927C483.912 327.619 482.825 326.311 481.738 325.003C479.433 327.886 476.445 330.804 472.589 333.231Z" fill="#EA9127"/>
<path d="M440 447.999C444.663 433.018 454.507 408.087 475.575 383.329C495.274 360.181 516.493 346.929 530 339.867C528.286 331.156 526.889 321.426 526.167 310.803C525.792 305.287 525.632 300.01 525.634 294.999C512.294 308.962 497.592 326.649 483.666 348.459C459.857 385.747 447.114 421.307 440 447.998V447.999Z" fill="#EA9127"/>
<path d="M407.238 13C404.969 17.0996 402.628 22.0021 400.574 27.6914C397.241 36.9217 395.708 45.3317 395 52C395.341 50.0264 397.219 40.252 405.267 35.2376C414.444 29.5201 428.019 32.2509 437 43.0038C432.623 36.6103 426.654 29.2043 418.665 22.0216C414.727 18.4801 410.863 15.5016 407.237 13L407.238 13Z" fill="#903518"/>
<path d="M592.29 18.9988C594.378 23.0532 596.512 27.9715 598.25 33.7083C601.108 43.1485 601.914 51.5829 602 57.9989C601.858 56.3305 600.818 45.9987 592.45 40.3255C583.449 34.2225 569.57 35.9502 560 45.6344C564.537 40.0739 570.777 33.5509 579.095 27.3725C583.718 23.9388 588.196 21.1945 592.291 18.9988H592.29Z" fill="#903518"/>
<path d="M535.567 274.137C547.712 255.093 559.856 236.048 572 217.003C561.245 228.782 539.249 249.579 504.852 261.773C482.545 269.68 462.674 271.257 449 271.196C459.201 275.099 475.379 279.862 495.646 280C512.329 280.114 526.065 277.054 535.567 274.137Z" fill="#CC5520"/>
</svg>
