<svg width="128" height="24" viewBox="0 0 128 24" fill="none" xmlns="http://www.w3.org/2000/svg">
<path d="M128 0H99V24H128V0Z" fill="#532322"/>
<path d="M5.96397 13.2725V22.9353H1.58229V13.2725H0V9.87588H1.58229V7.29919C1.58229 5.83531 1.73452 4.16632 3.10372 2.76097C3.98611 1.85289 5.23369 1.26758 6.90735 1.26758C7.88097 1.26758 8.672 1.44317 9.40252 1.70656V5.39608C8.91571 5.10318 8.27655 4.89833 7.72875 4.89833C7.05946 4.89833 6.63339 5.19122 6.45079 5.42534C5.96397 6.0404 5.96397 7.06519 5.96397 7.67988V9.876H9.4329V13.2726H5.96397V13.2725Z" fill="#532322"/>
<path d="M21.9873 21.2651C20.9645 22.4364 19.2259 23.3737 17.0012 23.3737C14.7768 23.3737 13.038 22.4365 12.0152 21.2651C10.8647 19.9473 10.3021 18.0734 10.3021 16.4047C10.3021 14.7356 10.8647 12.8617 12.0152 11.5439C13.038 10.3727 14.7768 9.43579 17.0012 9.43579C19.2259 9.43579 20.9645 10.3725 21.9873 11.5439C23.138 12.8617 23.7004 14.7358 23.7004 16.4047C23.7004 18.0735 23.138 19.9475 21.9873 21.2651ZM14.9303 13.9449C14.3933 14.5598 14.0865 15.3502 14.0865 16.4046C14.0865 17.6051 14.4955 18.3663 14.9303 18.864C15.3904 19.391 16.0553 19.8011 17.0268 19.8011C17.8451 19.8011 18.5356 19.479 19.0726 18.864C19.6093 18.249 19.9162 17.4587 19.9162 16.4046C19.9162 15.3502 19.6093 14.5598 19.0726 13.9449C18.5356 13.3302 17.8451 13.0081 17.0014 13.0081C16.1576 13.0081 15.4671 13.3302 14.9304 13.9449H14.9303Z" fill="#532322"/>
<path d="M29.9398 15.8194L25.414 9.87524H30.1187L32.241 12.8913L34.3633 9.87524H39.068L34.5423 15.8194L40.1162 22.9347H35.3603L32.241 18.7182L29.1216 22.9347H24.3657L29.9398 15.8194Z" fill="#532322"/>
<path d="M41.599 9.87612H45.2808V11.3988C46.2269 9.75931 47.6076 9.55396 48.477 9.55396C48.9629 9.55396 49.8578 9.61274 50.6249 10.1399C51.2129 10.5205 51.6988 11.1648 52.0055 11.9554C52.2869 11.428 52.7215 10.8133 53.4631 10.2862C54.2557 9.72967 54.9972 9.55396 55.8921 9.55396C57.273 9.55396 58.3979 10.0226 59.0883 10.7842C60.1878 11.9847 60.2646 13.7413 60.2646 14.6786V22.9356H56.5826V16.318C56.5826 15.6446 56.5826 14.4732 56.0966 13.7705C55.7898 13.3315 55.3043 13.0678 54.7672 13.0678C54.1534 13.0678 53.6419 13.3899 53.3352 13.8585C52.8493 14.5613 52.7727 15.5861 52.7727 16.4352V22.9355H49.0909V16.1422C49.0909 15.2638 49.0653 14.2389 48.5028 13.5947C48.1193 13.1557 47.659 13.0676 47.2755 13.0676C46.7895 13.0676 46.3551 13.2142 45.997 13.5947C45.3066 14.3562 45.281 15.8201 45.281 16.2594V22.9355H41.5992V9.876L41.599 9.87612Z" fill="#532322"/>
<path d="M65.2512 1.85352C66.4531 1.85352 67.3992 2.93719 67.3992 4.3134C67.3992 5.68948 66.4531 6.77279 65.2512 6.77279C64.0495 6.77279 63.1035 5.68948 63.1035 4.3134C63.1035 2.93719 64.0495 1.85352 65.2512 1.85352ZM67.3992 10.1275V23.1869L63.4105 22.936V9.87651L67.3992 10.1275Z" fill="#532322"/>
<path d="M70.2108 9.87536H73.8926V11.4273C75.0178 9.78768 76.3474 9.52393 77.4211 9.52393C78.4184 9.52393 79.7225 9.7289 80.6939 10.8417C81.768 12.0715 81.8445 13.6233 81.8445 14.6778V22.9348H78.1627V16.2297C78.1627 15.3805 78.1374 14.2969 77.5492 13.6234C77.2678 13.3012 76.8076 13.0378 76.1429 13.0378C75.3757 13.0378 74.8897 13.3893 74.6086 13.7406C73.9948 14.4434 73.8926 15.3805 73.8926 16.2297V22.9348H70.2108V9.87536Z" fill="#532322"/>
<path d="M97.1354 22.9356H93.4536V21.3545C92.8911 22.2912 91.8682 23.3749 89.8487 23.3749C88.1607 23.3749 86.9337 22.7599 85.9365 21.5885C84.7603 20.2414 84.1467 18.3676 84.1467 16.3471C84.1467 14.1806 84.8368 12.3942 85.9365 11.1937C86.9337 10.1104 88.3399 9.43689 89.8998 9.43689C91.1526 9.43689 92.5333 9.90549 93.4537 11.3401V1.5896H97.1355V22.9353L97.1354 22.9356ZM88.8256 13.9463C88.2886 14.5321 87.9307 15.3813 87.9307 16.4353C87.9307 17.4017 88.2886 18.2504 88.8256 18.8363C89.388 19.4514 90.1042 19.7439 90.7435 19.7439C91.4334 19.7439 92.2519 19.4218 92.84 18.7779C93.2748 18.3093 93.6838 17.5187 93.6838 16.4355C93.6838 15.3225 93.3001 14.5614 92.8653 14.0344C92.2776 13.3316 91.5871 13.068 90.7946 13.068C90.053 13.068 89.4137 13.3021 88.8256 13.9464V13.9463Z" fill="#532322"/>
<path d="M111.891 17.1369H103.376C103.376 17.8396 103.606 18.7767 104.066 19.3623C104.629 20.065 105.396 20.1822 105.958 20.1822C106.495 20.1822 107.058 20.0649 107.441 19.8015C107.493 19.7718 107.927 19.4502 108.234 18.7178L111.711 19.128C111.2 20.9723 110.177 21.9387 109.513 22.4075C108.413 23.1685 107.186 23.3738 105.907 23.3738C104.194 23.3738 102.685 23.0224 101.356 21.4997C100.359 20.3576 99.6429 18.6301 99.6429 16.4632C99.6429 14.5892 100.231 12.6568 101.382 11.3097C102.762 9.72844 104.475 9.43579 105.754 9.43579C107.032 9.43579 108.873 9.69917 110.279 11.3974C111.634 13.0373 111.891 15.0869 111.891 16.6971V17.1366V17.1369ZM108.49 14.6186C108.464 14.5013 108.285 13.6818 107.748 13.0959C107.339 12.6569 106.751 12.364 106.009 12.364C105.063 12.364 104.501 12.8034 104.143 13.2132C103.862 13.5645 103.606 14.033 103.503 14.6186H108.49Z" fill="white"/>
<path d="M126.618 22.9356H122.936V21.3545C122.373 22.2912 121.351 23.3749 119.331 23.3749C117.643 23.3749 116.416 22.7599 115.419 21.5885C114.242 20.2414 113.629 18.3676 113.629 16.3471C113.629 14.1806 114.319 12.3942 115.419 11.1937C116.416 10.1104 117.822 9.43689 119.382 9.43689C120.635 9.43689 122.016 9.90549 122.936 11.3401V1.5896H126.618V22.9353L126.618 22.9356ZM118.308 13.9463C117.771 14.5321 117.413 15.3813 117.413 16.4353C117.413 17.4017 117.771 18.2504 118.308 18.8363C118.87 19.4514 119.586 19.7439 120.226 19.7439C120.916 19.7439 121.734 19.4218 122.322 18.7779C122.757 18.3093 123.166 17.5187 123.166 16.4355C123.166 15.3225 122.782 14.5614 122.348 14.0344C121.76 13.3316 121.069 13.068 120.277 13.068C119.535 13.068 118.896 13.3021 118.308 13.9464V13.9463Z" fill="white"/>
</svg>
