<svg width="127" height="23" viewBox="0 0 127 23" fill="none" xmlns="http://www.w3.org/2000/svg">
<path d="M5.96397 12.0049V21.6678H1.58229V12.0049H0V8.60831H1.58229V6.03161C1.58229 4.56773 1.73452 2.89874 3.10372 1.49339C3.98611 0.585308 5.23369 0 6.90735 0C7.88097 0 8.672 0.175594 9.40252 0.438982V4.1285C8.91571 3.8356 8.27655 3.63075 7.72875 3.63075C7.05946 3.63075 6.63339 3.92364 6.45079 4.15776C5.96397 4.77282 5.96397 5.79761 5.96397 6.4123V8.60843H9.4329V12.0051H5.96397V12.0049Z" fill="white"/>
<path d="M21.9873 19.9975C20.9645 21.1688 19.2259 22.1061 17.0012 22.1061C14.7768 22.1061 13.038 21.1689 12.0152 19.9975C10.8647 18.6797 10.3021 16.8058 10.3021 15.1372C10.3021 13.4681 10.8647 11.5941 12.0152 10.2763C13.038 9.10508 14.7768 8.16821 17.0012 8.16821C19.2259 8.16821 20.9645 9.10495 21.9873 10.2763C23.138 11.5941 23.7004 13.4682 23.7004 15.1372C23.7004 16.8059 23.138 18.6799 21.9873 19.9975ZM14.9303 12.6773C14.3933 13.2922 14.0865 14.0826 14.0865 15.137C14.0865 16.3375 14.4955 17.0987 14.9303 17.5964C15.3904 18.1235 16.0553 18.5335 17.0268 18.5335C17.8451 18.5335 18.5356 18.2114 19.0726 17.5964C19.6093 16.9814 19.9162 16.1911 19.9162 15.137C19.9162 14.0826 19.6093 13.2922 19.0726 12.6773C18.5356 12.0626 17.8451 11.7406 17.0014 11.7406C16.1576 11.7406 15.4671 12.0626 14.9304 12.6773H14.9303Z" fill="white"/>
<path d="M29.9398 14.5518L25.414 8.60767H30.1187L32.241 11.6237L34.3633 8.60767H39.068L34.5423 14.5518L40.1162 21.6671H35.3603L32.241 17.4506L29.1216 21.6671H24.3657L29.9398 14.5518Z" fill="white"/>
<path d="M41.599 8.60842H45.2808V10.1311C46.2269 8.49161 47.6076 8.28625 48.477 8.28625C48.9629 8.28625 49.8578 8.34504 50.6249 8.87218C51.2129 9.25275 51.6988 9.89707 52.0055 10.6877C52.2869 10.1603 52.7215 9.54564 53.4631 9.0185C54.2557 8.46197 54.9972 8.28625 55.8921 8.28625C57.273 8.28625 58.3979 8.75487 59.0883 9.5165C60.1878 10.717 60.2646 12.4736 60.2646 13.4109V21.6679H56.5826V15.0503C56.5826 14.3769 56.5826 13.2055 56.0966 12.5028C55.7898 12.0638 55.3043 11.8001 54.7672 11.8001C54.1534 11.8001 53.6419 12.1222 53.3352 12.5908C52.8493 13.2936 52.7727 14.3184 52.7727 15.1675V21.6678H49.0909V14.8745C49.0909 13.9961 49.0653 12.9712 48.5028 12.327C48.1193 11.888 47.659 11.7999 47.2755 11.7999C46.7895 11.7999 46.3551 11.9465 45.997 12.327C45.3066 13.0885 45.281 14.5524 45.281 14.9917V21.6678H41.5992V8.6083L41.599 8.60842Z" fill="white"/>
<path d="M65.2512 0.585815C66.453 0.585815 67.3991 1.66949 67.3991 3.0457C67.3991 4.42178 66.453 5.50509 65.2512 5.50509C64.0495 5.50509 63.1035 4.42178 63.1035 3.0457C63.1035 1.66949 64.0495 0.585815 65.2512 0.585815ZM67.3991 8.85978V21.9192L63.4104 21.6683V8.60881L67.3991 8.85978Z" fill="white"/>
<path d="M70.2108 8.60778H73.8926V10.1597C75.0178 8.5201 76.3474 8.25635 77.4211 8.25635C78.4184 8.25635 79.7225 8.46133 80.6939 9.57415C81.768 10.8039 81.8445 12.3557 81.8445 13.4102V21.6672H78.1627V14.9622C78.1627 14.113 78.1374 13.0293 77.5492 12.3558C77.2678 12.0337 76.8076 11.7703 76.1429 11.7703C75.3757 11.7703 74.8897 12.1217 74.6086 12.473C73.9948 13.1759 73.8926 14.113 73.8926 14.9622V21.6672H70.2108V8.60778Z" fill="white"/>
<path d="M97.1354 21.668H93.4536V20.0869C92.8911 21.0237 91.8682 22.1073 89.8487 22.1073C88.1607 22.1073 86.9337 21.4923 85.9365 20.3209C84.7603 18.9739 84.1467 17.1 84.1467 15.0795C84.1467 12.913 84.8368 11.1266 85.9365 9.92608C86.9337 8.84277 88.3399 8.16931 89.8998 8.16931C91.1526 8.16931 92.5333 8.63792 93.4537 10.0725V0.322021H97.1355V21.6677L97.1354 21.668ZM88.8256 12.6787C88.2886 13.2645 87.9307 14.1137 87.9307 15.1678C87.9307 16.1341 88.2886 16.9828 88.8256 17.5688C89.388 18.1838 90.1042 18.4764 90.7435 18.4764C91.4334 18.4764 92.2519 18.1542 92.84 17.5103C93.2748 17.0417 93.6838 16.2511 93.6838 15.1679C93.6838 14.0549 93.3001 13.2938 92.8653 12.7668C92.2776 12.0641 91.5871 11.8004 90.7946 11.8004C90.053 11.8004 89.4137 12.0345 88.8256 12.6789V12.6787Z" fill="white"/>
<path d="M111.891 15.8693H103.376C103.376 16.572 103.606 17.5091 104.066 18.0947C104.629 18.7974 105.396 18.9146 105.958 18.9146C106.495 18.9146 107.058 18.7973 107.441 18.5339C107.493 18.5043 107.927 18.1826 108.234 17.4502L111.711 17.8604C111.2 19.7048 110.177 20.6711 109.513 21.1399C108.413 21.9009 107.186 22.1062 105.907 22.1062C104.194 22.1062 102.685 21.7548 101.356 20.2322C100.359 19.0901 99.6429 17.3626 99.6429 15.1956C99.6429 13.3216 100.231 11.3892 101.382 10.0422C102.762 8.46086 104.475 8.16821 105.754 8.16821C107.032 8.16821 108.873 8.43159 110.279 10.1298C111.635 11.7697 111.891 13.8194 111.891 15.4296V15.869V15.8693ZM108.49 13.351C108.464 13.2337 108.285 12.4143 107.748 11.8283C107.339 11.3894 106.751 11.0965 106.009 11.0965C105.063 11.0965 104.501 11.5358 104.143 11.9456C103.862 12.2969 103.606 12.7654 103.503 13.351H108.49Z" fill="white"/>
<path d="M126.618 21.668H122.936V20.0869C122.373 21.0237 121.351 22.1073 119.331 22.1073C117.643 22.1073 116.416 21.4923 115.419 20.3209C114.242 18.9739 113.629 17.1 113.629 15.0795C113.629 12.913 114.319 11.1266 115.419 9.92608C116.416 8.84277 117.822 8.16931 119.382 8.16931C120.635 8.16931 122.016 8.63792 122.936 10.0725V0.322021H126.618V21.6677L126.618 21.668ZM118.308 12.6787C117.771 13.2645 117.413 14.1137 117.413 15.1678C117.413 16.1341 117.771 16.9828 118.308 17.5688C118.87 18.1838 119.586 18.4764 120.226 18.4764C120.916 18.4764 121.734 18.1542 122.322 17.5103C122.757 17.0417 123.166 16.2511 123.166 15.1679C123.166 14.0549 122.782 13.2938 122.348 12.7668C121.76 12.0641 121.069 11.8004 120.277 11.8004C119.535 11.8004 118.896 12.0345 118.308 12.6789V12.6787Z" fill="white"/>
</svg>
